<svg xmlns="http://www.w3.org/2000/svg" viewBox="0 0 95.08 56.19"><defs><style>.cls-1{fill:#fff;}.cls-1,.cls-2{stroke:#000;stroke-miterlimit:10;stroke-width:3px;}.cls-2{fill:none;}</style></defs><title>cup</title><g id="Layer_1" data-name="Layer 1"><path class="cls-1" d="M6,70.88c0,3.66,18.37,6.62,41,6.62s41-3,41-6.62a1.26,1.26,0,0,0-.05-.33H6.05A1.26,1.26,0,0,0,6,70.88Z" transform="translate(-4.5 -22.81)"/><path class="cls-1" d="M89.74,29.31c-7.22-2.93-15.8,1.42-19.16,9.72s-.23,17.39,7,20.32,15.8-1.43,19.16-9.73S97,32.23,89.74,29.31Zm1.62,20.06c-2.4,5.79-8.11,9-12.75,7.15s-6.46-8-4.06-13.8,8.12-9,12.76-7.16S93.76,43.58,91.36,49.37Z" transform="translate(-4.5 -22.81)"/><path class="cls-1" d="M88,26.74c0-.82,0-1.62-.05-2.43H6.05c0,.81,0,1.61,0,2.43,0,19.33,9.9,36,24.13,43.46H63.91C78.14,62.71,88,46.07,88,26.74Z" transform="translate(-4.5 -22.81)"/></g><g id="Layer_2" data-name="Layer 2"><line class="cls-2" x1="18.19" y1="1.15" x2="18.19" y2="15.06"/><polygon class="cls-1" points="15.93 9.19 12.21 17.42 12.21 27.19 25.2 27.19 25.2 16.94 21.7 9.19 15.93 9.19"/></g></svg>