<svg id="Layer_1" data-name="Layer 1" xmlns="http://www.w3.org/2000/svg" viewBox="0 0 1920 1080"><defs><style>.cls-1{fill:#fe8874;stroke:#fe8874;}.cls-1,.cls-10,.cls-11,.cls-12,.cls-13,.cls-14,.cls-15,.cls-16,.cls-17,.cls-18,.cls-19,.cls-2,.cls-20,.cls-21,.cls-22,.cls-23,.cls-24,.cls-25,.cls-26,.cls-27,.cls-28,.cls-29,.cls-3,.cls-30,.cls-31,.cls-32,.cls-33,.cls-34,.cls-35,.cls-36,.cls-37,.cls-38,.cls-39,.cls-4,.cls-40,.cls-41,.cls-42,.cls-43,.cls-44,.cls-45,.cls-46,.cls-47,.cls-48,.cls-49,.cls-5,.cls-50,.cls-51,.cls-52,.cls-53,.cls-54,.cls-55,.cls-56,.cls-57,.cls-58,.cls-6,.cls-7,.cls-8,.cls-9{stroke-width:1.51px;}.cls-2{fill:#ff9e8d;stroke:#ff9e8d;}.cls-3{fill:#ffa798;stroke:#ffa798;}.cls-4{fill:#ff9c8c;stroke:#ff9c8c;}.cls-5{fill:#fd826f;stroke:#fd826f;}.cls-6{fill:#fe9384;stroke:#fe9384;}.cls-7{fill:#ffb0a2;stroke:#ffb0a2;}.cls-8{fill:#ffad9f;stroke:#ffad9f;}.cls-9{fill:#ffa597;stroke:#ffa597;}.cls-10{fill:#ffbeb3;stroke:#ffbeb3;}.cls-11{fill:#ffa99d;stroke:#ffa99d;}.cls-12{fill:#ffdad6;stroke:#ffdad6;}.cls-13{fill:#fe9282;stroke:#fe9282;}.cls-14{fill:#fa7665;stroke:#fa7665;}.cls-15{fill:#fe8a7a;stroke:#fe8a7a;}.cls-16{fill:#ff9387;stroke:#ff9387;}.cls-17{fill:#ffb9b0;stroke:#ffb9b0;}.cls-18{fill:#fd8276;stroke:#fd8276;}.cls-19{fill:#fd8173;stroke:#fd8173;}.cls-20{fill:#ff9d95;stroke:#ff9d95;}.cls-21{fill:#ffc0b5;stroke:#ffc0b5;}.cls-22{fill:#ffeff0;stroke:#ffeff0;}.cls-23{fill:#ffd5d0;stroke:#ffd5d0;}.cls-24{fill:#ffd4cd;stroke:#ffd4cd;}.cls-25{fill:#ffc5bc;stroke:#ffc5bc;}.cls-26{fill:#ffb5a8;stroke:#ffb5a8;}.cls-27{fill:#ffb9b1;stroke:#ffb9b1;}.cls-28{fill:#ffb5a9;stroke:#ffb5a9;}.cls-29{fill:#fd8579;stroke:#fd8579;}.cls-30{fill:#ff9c91;stroke:#ff9c91;}.cls-31{fill:#ffc0ba;stroke:#ffc0ba;}.cls-32{fill:#ffb7ad;stroke:#ffb7ad;}.cls-33{fill:#ffaea8;stroke:#ffaea8;}.cls-34{fill:#ffb6b0;stroke:#ffb6b0;}.cls-35{fill:#ffdbd7;stroke:#ffdbd7;}.cls-36{fill:#ffbfb4;stroke:#ffbfb4;}.cls-37{fill:#fff2f4;stroke:#fff2f4;}.cls-38{fill:#fe8b7e;stroke:#fe8b7e;}.cls-39{fill:#ffbdb6;stroke:#ffbdb6;}.cls-40{fill:#fe8d84;stroke:#fe8d84;}.cls-41{fill:#ffbab5;stroke:#ffbab5;}.cls-42{fill:#ffc1bd;stroke:#ffc1bd;}.cls-43{fill:#ffc2bd;stroke:#ffc2bd;}.cls-44{fill:#ffbbb3;stroke:#ffbbb3;}.cls-45{fill:#ff988d;stroke:#ff988d;}.cls-46{fill:#ff9490;stroke:#ff9490;}.cls-47{fill:#ffbbb0;stroke:#ffbbb0;}.cls-48{fill:#ffdedb;stroke:#ffdedb;}.cls-49{fill:#fff1f2;stroke:#fff1f2;}.cls-50{fill:#ffc1bc;stroke:#ffc1bc;}.cls-51{fill:#fe938d;stroke:#fe938d;}.cls-52{fill:#ffc9c9;stroke:#ffc9c9;}.cls-53{fill:#ffa4a2;stroke:#ffa4a2;}.cls-54{fill:#ffa3a3;stroke:#ffa3a3;}.cls-55{fill:#fe958b;stroke:#fe958b;}.cls-56{fill:#ffaea6;stroke:#ffaea6;}.cls-57{fill:#ffb8ad;stroke:#ffb8ad;}.cls-58{fill:#ffc5c1;stroke:#ffc5c1;}</style></defs><title>Artboard 1</title><path class="cls-1" d="M1083.5,610.23l-43-176-403,284Z"/><path class="cls-2" d="M1040.5,434.23l-423-37,20,321Z"/><path class="cls-3" d="M617.5,397.23l-112,212,132,109Z"/><path class="cls-4" d="M505.5,609.23l138,344-6-235Z"/><path class="cls-5" d="M637.5,718.23l312,270,134-378Z"/><path class="cls-6" d="M643.5,953.23l306,35-312-270Z"/><path class="cls-7" d="M1040.5,434.23l-238-321-185,284Z"/><path class="cls-8" d="M1040.5,434.23l57-329-295,8Z"/><path class="cls-9" d="M1476.5,281.23l-379-176-57,329Z"/><path class="cls-10" d="M617.5,397.23l-298-34,186,246Z"/><path class="cls-11" d="M505.5,609.23l-154,486,292-142Z"/><path class="cls-12" d="M420.5-84.77l-101,448,298,34Z"/><path class="cls-13" d="M1083.5,610.23l393-329-436,153Z"/><path class="cls-14" d="M949.5,988.23l499-251-365-127Z"/><path class="cls-15" d="M1448.5,737.23l28-456-393,329Z"/><path class="cls-16" d="M643.5,953.23l282,377,24-342Z"/><path class="cls-17" d="M102.5,916.23l249,179,154-486Z"/><path class="cls-18" d="M925.5,1330.23l456-235-432-107Z"/><path class="cls-19" d="M949.5,988.23l432,107,67-358Z"/><path class="cls-20" d="M789.5,1422.23l136-92-282-377Z"/><path class="cls-21" d="M319.5,363.23l-267,378,453-132Z"/><path class="cls-22" d="M420.5-84.77l-235,238,134,210Z"/><path class="cls-23" d="M802.5,113.23l-382-198,197,482Z"/><path class="cls-24" d="M769.5-299.77l-349,215,382,198Z"/><path class="cls-25" d="M-14.5,453.23l67,288,267-378Z"/><path class="cls-26" d="M1097.5,105.23l52-305-347,313Z"/><path class="cls-27" d="M1476.5,281.23l-69-279-310,103Z"/><path class="cls-28" d="M52.5,741.23l50,175,403-307Z"/><path class="cls-29" d="M1381.5,1095.23l263-324-196-34Z"/><path class="cls-30" d="M1448.5,737.23l314-411-286-45Z"/><path class="cls-31" d="M1476.5,281.23l143-294-212,15Z"/><path class="cls-32" d="M1407.5,2.23l-258-202-52,305Z"/><path class="cls-33" d="M437.5,1438.23l352-16-146-469Z"/><path class="cls-34" d="M437.5,1438.23l206-485-292,142Z"/><path class="cls-35" d="M185.5,153.23l-200,300,334-90Z"/><path class="cls-36" d="M1149.5-199.77l-380-100,33,413Z"/><path class="cls-37" d="M-3.5-379.77l-259,326,448,207Z"/><path class="cls-17" d="M1407.5,2.23l-123-208-135,6Z"/><path class="cls-38" d="M1644.5,771.23l118-445-314,411Z"/><path class="cls-39" d="M1407.5,2.23l173-386-296,178Z"/><path class="cls-40" d="M1381.5,1095.23l408-20-145-304Z"/><path class="cls-41" d="M1762.5,326.23l-143-339-143,294Z"/><path class="cls-42" d="M102.5,916.23l-72,321,321-142Z"/><path class="cls-43" d="M-369.5,1113.23l400,124,72-321Z"/><path class="cls-44" d="M-369.5,1113.23l472-197-50-175Z"/><path class="cls-45" d="M1644.5,771.23l490-129-372-316Z"/><path class="cls-46" d="M1608.5,1388.23l181-313-408,20Z"/><path class="cls-47" d="M-14.5,453.23l-309,176,376,112Z"/><path class="cls-48" d="M185.5,153.23l-420,133,220,167Z"/><path class="cls-49" d="M-262.5-53.77l28,340,420-133Z"/><path class="cls-50" d="M1619.5-12.77l-39-371-173,386Z"/><path class="cls-51" d="M1789.5,1075.23l236-73-381-231Z"/><path class="cls-52" d="M1762.5,326.23l287-330-430-9Z"/><path class="cls-53" d="M2066.5,1453.23l-41-451-236,73Z"/><path class="cls-54" d="M2066.5,1453.23l-277-378-181,313Z"/><path class="cls-37" d="M-3.5-379.77l189,533,235-238Z"/><path class="cls-55" d="M2025.5,1002.23l109-360-490,129Z"/><path class="cls-56" d="M2134.5,642.23v-218l-372-98Z"/><path class="cls-57" d="M-323.5,629.23l-46,484,422-372Z"/><path class="cls-58" d="M2134.5,424.23l-85-428-287,330Z"/></svg>