<svg id="Layer_1" data-name="Layer 1" xmlns="http://www.w3.org/2000/svg" viewBox="0 0 47 32.34"><defs><style>.cls-1{fill:#fff;}.cls-2{font-size:12px;font-family:OCRAStd, OCR A Std;}</style></defs><title>woof</title><path class="cls-1" d="M39.5,41.42c-1.72-.71-4.81-2.32-6-5.07L33.42,36H15.06C8.14,36,2.5,30.9,2.5,24.58V22c0-6.31,5.64-11.45,12.56-11.45H35.94C42.86,10.5,48.5,15.64,48.5,22v2.63c0,5.56-4.37,10.3-10.38,11.27l-.52.08.11.52A21.11,21.11,0,0,0,39.5,41.42Z" transform="translate(-2 -10)"/><path d="M35.94,11C42.59,11,48,15.91,48,22v2.63c0,5.31-4.19,9.84-10,10.78l-1,.16.21,1a19.32,19.32,0,0,0,1.26,3.85A9.2,9.2,0,0,1,34,36.16l-.25-.62H15.06C8.41,35.54,3,30.62,3,24.58V22C3,15.91,8.41,11,15.06,11H35.94m0-1H15.06C7.88,10,2,15.38,2,22v2.63c0,6.58,5.88,12,13.06,12h18c1.72,4.16,7.47,5.8,7.47,5.8a22.14,22.14,0,0,1-2.36-6c6.11-1,10.8-5.9,10.8-11.77V22C49,15.38,43.12,10,35.94,10Z" transform="translate(-2 -10)"/><text class="cls-2" transform="translate(6.1 17.47)">Woof</text></svg>